<svg width="108" height="108" viewBox="0 0 108 108" fill="none" xmlns="http://www.w3.org/2000/svg">
<path fill-rule="evenodd" clip-rule="evenodd" d="M30.4344 84.5656C31.3906 85.5219 32.5063 86 33.7812 86H75.2188C76.4937 86 77.6094 85.5219 78.5656 84.5656C79.5219 83.6094 80 82.4938 80 81.2188V41.6938C80 41.0563 79.8672 40.432 79.6016 39.8211C79.3359 39.2102 78.9906 38.6922 78.5656 38.2672L63.9828 23.6844C63.5578 23.2594 63.0398 22.9141 62.4289 22.6484C61.818 22.3828 61.1938 22.25 60.5563 22.25H33.7812C32.5063 22.25 31.3906 22.7281 30.4344 23.6844C29.4781 24.6406 29 25.7563 29 27.0313V81.2188C29 82.4938 29.4781 83.6094 30.4344 84.5656ZM60.8352 41.1758C60.3836 40.7242 60.1578 40.1531 60.1578 39.4625V27.0313L75.2188 41.8531H62.5484C61.8578 41.8531 61.2867 41.6273 60.8352 41.1758ZM39.2615 53.3398L49.1875 59.1769C49.902 58.4609 50.7176 57.8772 51.634 57.4258C52.5505 56.9744 53.5058 56.7487 54.5 56.7487C55.4942 56.7487 56.4495 56.9744 57.366 57.4258C58.2824 57.8772 59.098 58.4609 59.8125 59.1769L69.7385 53.3398L55.8514 45.7749C55.4165 45.5258 54.966 45.4013 54.5 45.4013C54.034 45.4013 53.5835 45.5258 53.1486 45.7749L39.2615 53.3398ZM39.1217 73.6063L53.102 81.6382V70.6177C51.4865 70.1818 50.1506 69.3335 49.0943 68.0727C48.038 66.8119 47.5099 65.3721 47.5099 63.7532C47.5099 63.4419 47.5254 63.115 47.5565 62.7726C47.5875 62.4301 47.6807 62.0566 47.8361 61.6519L37.7237 55.628V71.178C37.7237 71.7073 37.848 72.182 38.0965 72.6023C38.345 73.0226 38.6868 73.3572 39.1217 73.6063ZM51.5408 66.7185C52.3641 67.5435 53.3505 67.9559 54.5 67.9559C55.6806 67.9559 56.6747 67.5435 57.4825 66.7185C58.2902 65.8935 58.6941 64.9051 58.6941 63.7532C58.6941 62.5702 58.2902 61.574 57.4825 60.7646C56.6747 59.9552 55.6806 59.5505 54.5 59.5505C53.3505 59.5505 52.3641 59.9552 51.5408 60.7646C50.7176 61.574 50.3059 62.5702 50.3059 63.7532C50.3059 64.9051 50.7176 65.8935 51.5408 66.7185ZM55.898 70.6177V81.6382L69.8783 73.6063C70.3132 73.3572 70.655 73.0226 70.9035 72.6023C71.152 72.182 71.2763 71.7073 71.2763 71.178V55.628L61.1639 61.6519C61.3193 62.0877 61.4125 62.4691 61.4435 62.7959C61.4746 63.1228 61.4901 63.4419 61.4901 63.7532C61.4901 65.3721 60.962 66.8119 59.9057 68.0727C58.8494 69.3335 57.5135 70.1818 55.898 70.6177Z" fill="white"/>
</svg>
